PathFileType	4	(X/Y/Z)	Patient4_TMGait_0pt7_02_right_26.trc.trc
DataRate	CameraRate	NumFrames	NumMarkers	Units	OrigDataRate	OrigDataStartFrame	OrigNumFrames
85.365853658537	85.365853658537	4	33	mm	85.365853658537	106	       141
Frame#	Time	Sacral			L.Shoulder			Chest			R.Shoulder			Neck			R.ASIS			L.ASIS			R.Thigh.Superior			R.Thigh.Lateral			R.Thigh.Inferior			R.Patella			L.Thigh.Superior			L.Thigh.Lateral			L.Thigh.Inferior			L.Patella			L.Shank.Superior			L.Shank.Lateral			L.Shank.Inferior			R.Shank.Superior			R.Shank.Lateral			R.Shank.Inferior			R.Heel			R.Midfoot.Superior			R.Midfoot.Lateral			R.Toe			L.Heel			L.Midfoot.Lateral			L.Midfoot.Superior			L.Toe			L.Elbow			L.Wrist			R.Elbow			R.Wrist			
		X1	Y1	Z1	X2	Y2	Z2	X3	Y3	Z3	X4	Y4	Z4	X5	Y5	Z5	X6	Y6	Z6	X7	Y7	Z7	X8	Y8	Z8	X9	Y9	Z9	X10	Y10	Z10	X11	Y11	Z11	X12	Y12	Z12	X13	Y13	Z13	X14	Y14	Z14	X15	Y15	Z15	X16	Y16	Z16	X17	Y17	Z17	X18	Y18	Z18	X19	Y19	Z19	X20	Y20	Z20	X21	Y21	Z21	X22	Y22	Z22	X23	Y23	Z23	X24	Y24	Z24	X25	Y25	Z25	X26	Y26	Z26	X27	Y27	Z27	X28	Y28	Z28	X29	Y29	Z29	X30	Y30	Z30	X31	Y31	Z31	X32	Y32	Z32	X33	Y33	Z33	

106	30.260000000000	849.956423031632	1015.802141939544	424.738205320484	1064.199008078798	1434.139851088120	251.799330035607	1153.158735180229	1357.024189473167	418.886203967243	1065.388980726384	1438.559774681546	587.201836829296	1061.895011958096	1495.388353836263	406.306561128977	1062.698533615406	948.673388904664	561.869244374582	1075.234337885911	959.627354862313	287.410062392404	1155.528535560956	791.625769903326	535.256048511234	1123.261481743314	667.198720742592	605.677958754833	1218.512083684864	635.027615549096	529.463174081391	1246.464159253572	524.085736798808	551.993940773264	1112.121410876275	746.641295255211	320.925338601130	1021.505058044851	636.703182747699	254.206510943639	1094.773279699260	553.867630953502	324.441337430913	1090.427427539367	484.008270049862	334.065007481086	1059.338193022086	413.680174827824	322.059004047825	966.671586460038	305.361682212273	265.023787611843	1004.147560454816	191.057033814772	338.288353337018	1177.392683949144	443.113027340968	558.109180891704	1059.578200183985	390.424449421570	614.225721055237	1060.140498761177	279.762372887248	567.264977021126	869.977342270447	200.470011463179	533.377683718940	1041.114217724704	152.155809367612	579.721953127255	930.030359200892	141.720049937911	606.312498440973	1110.784107098916	41.831186019505	602.779767981581	866.872462376118	38.790534531136	372.477269463179	942.809271481595	35.698209352213	293.618197250130	1025.525426691286	96.353138827892	323.335195179756	1155.037735961606	41.712751062624	297.173435375154	1063.766790280809	1097.398283291700	104.013945991797	1276.905327852408	952.408348365223	136.172462886799	1025.714571075812	1086.638028578723	698.591569573795	1132.693108111178	847.951405451325	685.858455604217	
107	30.271714285714	848.605112320189	1015.918280701496	423.939570476279	1065.199543951638	1434.409262537434	252.583346286618	1152.501947244445	1356.894606000873	420.352585066725	1063.350599732020	1438.369454940412	587.905125590926	1061.332476098346	1495.393419262120	407.066244725114	1060.804266042912	949.089427293766	562.744591191210	1074.876410923731	959.583191792115	288.194244997436	1155.049783828660	794.074511275386	536.275825624011	1124.306843978500	669.153138495708	606.626365282482	1219.790183999061	638.112620949029	530.416857468616	1249.917969549486	528.712771150958	553.132288746684	1108.931746314761	745.459637222692	322.220614746377	1017.353754060223	636.685526320635	254.169817346650	1088.772404451614	552.865904882149	324.806935514037	1083.369743033408	483.236454311447	334.331378248511	1052.357135114862	413.215402781128	322.138501511413	959.544868489047	305.189000102563	264.844684036256	996.236780405512	190.820081046250	338.327892872025	1184.506630412855	445.655392819172	559.227588877153	1070.157831929730	386.730254886113	615.964007222046	1076.308216673057	276.292978478577	568.694113225279	890.513564597435	186.454110611617	535.767490428403	1064.462683746637	148.192737818664	581.322038039630	954.205477715293	131.272201309694	608.279611952074	1140.388825900961	41.985415507488	603.718944005020	858.589259235276	38.788265054541	372.401271179193	934.549553987370	35.657372839661	293.563333603350	1017.274299209267	96.316872331814	323.333508080003	1146.790571796157	41.663451407794	297.192981193772	1072.888005439393	1099.385958144035	102.814730675175	1294.636452677255	969.893126820916	138.259534362337	1018.169110173981	1087.202034211178	699.886887518941	1105.973506207110	839.931203701619	691.643732291087	
108	30.283428571429	847.430896495715	1015.961483069316	423.371586625993	1066.139676263804	1434.596730372640	253.534513654892	1151.953522556373	1356.693749883131	421.887319297105	1061.576812826302	1438.112994103175	588.751098650883	1060.866654993088	1495.311453957999	407.977866818832	1059.139732454091	949.343829440800	563.667775432569	1074.559692846915	959.479598385940	289.024943119056	1154.307731970029	795.833750278012	537.300171364372	1124.681581841508	670.517628521309	607.616566004736	1220.245691410424	640.330219034500	531.406538461338	1252.299001854506	532.687824708878	554.250339501612	1105.813427586783	744.246512367399	323.471373214548	1013.164906910141	636.653912104313	254.162303665151	1082.742598515292	551.851468657718	325.120851283481	1076.294053627066	482.481473180445	334.537239664249	1045.365368599669	412.758297001697	322.195382277315	952.387478776082	305.028578937859	264.678550840597	988.345266888195	190.595833979671	338.355347986937	1190.844365484877	447.759269858430	560.386371087149	1080.613403553165	382.538758879558	618.003872579617	1092.550978226862	272.652215599994	570.370501568431	912.009723231526	171.977397844086	538.707311154697	1088.239265776103	144.394469425940	583.159315965231	979.345312817018	120.857689953073	610.745660548284	1170.469896650985	42.984107225238	604.924623519262	850.323459865829	38.811552596489	372.323723823859	926.292070294196	35.629669141748	293.515502303207	1009.033435844688	96.280126294050	323.332880607374	1138.539165884026	41.605393884501	297.211361865763	1081.818835437804	1101.476405329820	101.984177919156	1310.926304897404	987.846547319876	140.805177353093	1010.230492203388	1088.009664179594	701.334448704463	1079.793389898175	834.249269482518	696.959984706857	
109	30.295142857143	846.460268776895	1015.917599389983	423.071531502255	1066.996898395473	1434.689736651580	254.644418004912	1151.517969191868	1356.419486621976	423.476753719452	1060.088246751141	1437.791634480907	589.735650772233	1060.508059638110	1495.134726351793	409.032339110283	1057.732450723787	949.422303047494	564.634533874234	1074.273109268515	959.320898026928	289.891738398419	1153.307326336843	796.843435266833	538.308009668542	1124.355060137621	671.236034232373	608.644285702836	1219.871792698793	641.619948358181	532.432704548928	1253.597446501459	535.943840177933	555.307700443267	1102.782579130432	743.001676320404	324.646737267407	1008.940769132410	636.606112698231	254.194515801665	1076.702061502684	550.826508145567	325.391933234969	1069.229476193643	481.746727262022	334.694872176932	1038.381989397208	412.308140600453	322.242729510653	945.209288107837	304.887978456128	264.536475145593	980.483904122490	190.386619714166	338.376791789459	1196.359423309730	449.408292392133	561.559870418469	1090.874668610528	377.960099213805	620.296967522575	1108.724131673405	268.976204812665	572.250444012705	934.348601902116	157.330594795278	542.112420552384	1112.210076812523	140.957723375767	585.183024214113	1005.243608357678	110.758630697996	613.637589898647	1200.669875440190	45.040369475781	606.365026685374	842.074527920707	38.864659101478	372.246317218653	918.036184151224	35.619628661734	293.476494040562	1000.803097248510	96.244288406540	323.334672306669	1130.280979009132	41.536433245503	297.228438166514	1090.549454099021	1103.641166730717	101.498565997631	1325.744288761832	1006.049322220438	143.759108249264	1001.808365879210	1089.121469996429	702.905111948261	1054.483319173417	830.773120566274	701.686501202607	
